<?xml version="1.0" standalone="no"?>
<!DOCTYPE svg PUBLIC "-//W3C//DTD SVG 20010904//EN"
 "http://www.w3.org/TR/2001/REC-SVG-20010904/DTD/svg10.dtd">
<svg version="1.0" xmlns="http://www.w3.org/2000/svg"
 width="300.000000pt" height="322.000000pt" viewBox="0 0 300.000000 322.000000"
 preserveAspectRatio="xMidYMid meet">
<metadata>
Created by potrace 1.10, written by Peter Selinger 2001-2011
</metadata>
<g transform="translate(0.000000,322.000000) scale(0.100000,-0.100000)"
fill="#000000" stroke="none">
<path d="M1504 3191 c16 -11 40 -32 53 -48 l25 -28 -22 32 c-22 34 -57 63 -75
63 -5 0 3 -9 19 -19z"/>
<path d="M1312 3180 c-19 -4 -39 -13 -45 -19 -6 -6 -35 -11 -64 -11 -101 0
-228 -58 -206 -93 3 -5 0 -7 -8 -5 -15 6 -89 -28 -89 -40 0 -4 -23 -20 -51
-35 -28 -16 -53 -36 -56 -45 -3 -10 -15 -27 -26 -39 -12 -13 -17 -30 -14 -43
3 -11 2 -18 -3 -15 -10 6 -60 -51 -60 -70 0 -8 -9 -23 -20 -33 -11 -10 -21
-28 -23 -40 -2 -12 -6 -25 -10 -28 -4 -4 -7 -18 -7 -30 0 -13 -4 -26 -10 -29
-22 -14 4 -99 27 -91 6 3 14 2 16 -2 2 -4 2 -1 1 6 -2 6 1 12 6 12 6 0 10 -14
10 -31 0 -16 6 -60 14 -97 24 -113 29 -192 13 -192 -38 0 -36 -92 4 -217 44
-138 63 -172 99 -180 17 -3 30 -11 30 -17 0 -25 59 -134 97 -177 32 -37 42
-59 52 -115 12 -63 12 -74 -4 -103 -9 -19 -23 -57 -31 -85 -31 -110 -42 -131
-69 -132 -30 -2 -181 -72 -197 -92 -7 -8 -33 -23 -58 -34 -24 -11 -62 -34 -85
-52 -22 -18 -51 -36 -65 -39 -14 -4 -92 -44 -175 -89 l-150 -83 3 -85 c5 -121
37 -280 77 -377 36 -91 191 -333 212 -333 7 0 13 2 13 4 0 15 -34 79 -62 116
-55 72 -124 198 -148 270 -21 63 -50 214 -54 282 -6 93 3 122 40 128 36 6 114
47 114 60 0 6 4 10 10 10 5 0 18 7 29 16 10 9 49 27 87 40 37 14 80 35 94 48
14 13 53 38 87 55 34 17 64 35 68 41 7 12 131 70 149 70 18 0 73 54 81 79 3
12 11 21 16 21 5 0 8 3 8 8 -4 26 6 21 44 -20 26 -29 71 -62 116 -85 87 -45
107 -74 123 -184 16 -105 34 -122 134 -126 93 -3 131 7 168 46 31 32 31 37 21
143 -10 98 7 135 113 248 42 45 86 98 98 116 11 19 24 37 28 41 3 4 30 -18 59
-48 56 -59 63 -62 227 -94 87 -17 179 -41 215 -56 11 -5 31 -10 45 -12 26 -4
45 -11 95 -32 35 -16 151 -61 252 -99 39 -15 74 -34 77 -42 3 -9 2 -57 -4
-107 -13 -126 -19 -189 -25 -277 -3 -41 -10 -108 -15 -148 -6 -40 -10 -116
-10 -167 0 -52 -6 -124 -14 -162 -8 -37 -17 -94 -21 -126 -7 -53 -6 -57 13
-57 11 0 20 6 19 13 -1 48 4 67 21 67 14 0 14 2 3 9 -14 9 -14 10 9 146 5 28
9 86 9 130 1 44 5 116 10 160 5 44 18 173 27 288 17 200 19 207 39 201 19 -5
19 -4 -2 15 -13 10 -23 23 -23 29 0 22 -69 57 -184 92 -22 7 -64 25 -95 40
-109 54 -487 160 -572 160 -28 0 -60 30 -133 127 -26 34 -57 69 -69 78 -19 13
-22 26 -26 101 -2 60 2 110 15 165 17 70 22 78 44 81 31 4 65 63 95 165 33
116 11 253 -41 253 -8 0 -11 6 -7 16 5 13 8 13 15 2 10 -13 7 5 -8 59 -5 18
-1 25 17 32 40 15 60 46 68 105 4 30 5 53 1 51 -3 -2 -12 17 -18 42 -13 46
-51 96 -87 114 -20 10 -20 10 0 -8 29 -26 70 -92 85 -137 14 -43 8 -97 -15
-132 -24 -36 -38 -29 -15 9 30 49 22 115 -22 179 -10 14 -18 31 -18 38 0 33
-106 120 -146 120 -8 0 -14 4 -14 9 0 12 26 32 33 25 3 -3 3 3 0 14 -2 11 0
23 6 26 15 10 -17 70 -68 128 -44 49 -137 127 -111 93 12 -17 11 -17 -10 2
-14 12 -42 29 -63 38 -21 9 -40 22 -44 30 -3 8 -12 15 -21 15 -13 0 -12 -3 4
-16 18 -14 18 -15 -6 -8 -14 3 -29 10 -34 15 -11 10 -28 10 -74 -1z m56 -19
c11 -7 10 -10 -3 -15 -9 -3 -21 -4 -26 0 -5 3 -9 1 -9 -4 0 -5 -12 -7 -27 -4
l-28 5 30 13 c36 16 46 16 63 5z m81 -48 c7 -8 22 -12 33 -10 10 3 21 0 26 -6
4 -7 27 -27 52 -46 25 -19 37 -25 26 -13 -33 38 -2 24 35 -15 18 -20 26 -31
17 -24 -13 9 -18 10 -18 2 0 -6 11 -16 24 -21 35 -13 54 -57 44 -103 -6 -30
-4 -46 9 -68 10 -16 21 -29 24 -29 4 0 11 -10 14 -21 5 -16 9 -18 15 -9 9 14
30 5 30 -12 0 -6 8 -20 17 -30 9 -11 18 -27 20 -36 4 -18 4 -21 3 -129 -1 -40
4 -81 9 -91 14 -26 -9 -61 -26 -40 -5 7 -13 26 -17 42 -9 38 -36 78 -36 54 0
-9 5 -20 10 -23 6 -4 8 -11 5 -16 -4 -5 -2 -9 2 -9 5 0 9 -10 10 -22 1 -62 3
-65 33 -71 17 -4 30 -11 30 -18 0 -7 -11 -8 -30 -4 -30 7 -31 6 -23 -22 8 -30
11 -244 4 -328 -3 -30 -15 -66 -29 -89 -14 -22 -26 -52 -27 -66 -1 -15 -4 -31
-7 -36 -4 -5 -7 -29 -9 -54 -3 -47 -17 -76 -58 -120 -27 -29 -55 -80 -44 -79
5 0 31 28 58 62 l50 62 9 -100 c5 -62 4 -116 -2 -143 -5 -23 -6 -45 -2 -47 14
-9 35 59 34 109 0 43 1 46 13 30 7 -10 13 -34 13 -54 0 -44 -32 -91 -135 -202
-40 -42 -80 -94 -91 -115 -20 -40 -24 -109 -12 -199 l6 -51 -41 -20 c-35 -17
-55 -19 -120 -15 -90 5 -91 6 -103 114 -10 95 -41 141 -114 172 -97 40 -180
132 -180 198 0 50 16 49 23 -2 5 -43 60 -120 99 -141 20 -11 20 -10 -2 27 -13
22 -31 48 -40 59 -33 38 -57 100 -62 158 -5 58 -4 59 19 54 24 -4 24 -4 -6 27
-17 18 -31 37 -31 43 0 7 -15 28 -33 48 -35 38 -48 60 -98 170 -17 39 -36 73
-40 76 -5 3 -11 23 -14 45 -3 21 -11 73 -20 114 -8 41 -14 110 -15 153 0 76
-5 88 -28 65 -19 -19 -14 4 6 26 14 16 18 32 14 69 -3 41 -6 45 -16 31 -11
-14 -14 -7 -25 47 -6 35 -16 79 -22 96 -6 18 -7 37 -4 43 3 5 1 10 -4 10 -6 0
-11 -7 -11 -15 0 -8 -5 -15 -11 -15 -6 0 -9 6 -7 12 3 7 -1 18 -7 25 -14 13
-8 63 7 63 5 0 6 4 3 10 -3 5 10 34 30 65 19 30 35 62 35 70 0 8 4 15 9 15 11
0 76 101 73 113 -1 4 6 10 15 14 10 3 39 21 64 40 26 18 52 33 58 33 7 0 10 4
7 9 -3 5 6 14 22 20 15 6 42 22 60 36 19 13 53 27 78 31 24 3 44 9 44 13 0 6
20 7 150 12 30 1 66 -3 80 -10 22 -11 23 -10 8 2 -10 8 -18 17 -18 21 0 11 42
-4 59 -21z m431 -529 c7 -25 13 -59 12 -75 -1 -30 -20 -64 -30 -55 -2 3 -7 45
-11 94 -7 99 7 116 29 36z m-7 -280 c8 -8 -11 -44 -22 -44 -12 0 -23 29 -15
41 6 10 28 12 37 3z m21 -56 c9 -37 7 -106 -3 -88 -14 24 -25 110 -13 110 5 0
12 -10 16 -22z m-26 -53 c19 -71 15 -115 -12 -144 -13 -15 -27 -37 -31 -50 -6
-21 -3 -20 24 10 17 19 31 29 31 22 0 -6 -4 -15 -10 -18 -5 -3 -10 -13 -10
-22 0 -19 -38 -73 -52 -73 -11 0 -6 88 7 155 4 17 9 50 11 75 11 103 23 116
42 45z m-1122 -8 c4 -3 4 -14 0 -23 -5 -13 -9 -14 -21 -4 -19 16 -19 39 0 36
8 -1 17 -5 21 -9z m-27 -75 c-1 -65 -14 -75 -16 -12 0 34 3 58 8 54 5 -3 9
-22 8 -42z m39 -50 c7 -37 13 -72 14 -79 1 -7 8 -15 15 -18 9 -3 14 -16 12
-32 -1 -16 3 -41 10 -56 14 -36 14 -47 -1 -47 -17 1 -49 65 -42 83 3 8 -4 29
-15 48 -21 36 -26 64 -23 138 3 59 14 44 30 -37z"/>
<path d="M1235 2909 c-11 -4 -34 -8 -52 -8 -17 -1 -34 -5 -38 -10 -3 -5 -27
-17 -53 -27 -61 -23 -173 -97 -191 -126 -13 -20 -10 -20 25 7 21 16 47 36 56
45 32 29 222 102 275 105 12 0 25 4 28 7 10 10 -29 15 -50 7z"/>
<path d="M1701 2603 c8 -10 21 -30 29 -45 17 -34 28 -36 26 -4 0 13 -3 23 -5
20 -2 -2 -14 8 -27 21 -26 28 -45 34 -23 8z"/>
<path d="M1446 2493 c-88 -18 -91 -20 -75 -40 11 -13 11 -17 2 -20 -7 -3 -13
-12 -12 -21 0 -11 2 -12 6 -4 2 6 10 9 15 6 7 -4 8 -2 4 4 -4 7 -3 12 3 12 6
0 7 7 4 17 -4 10 -2 14 4 10 6 -4 13 -1 16 5 2 7 7 10 10 7 4 -3 -2 -23 -13
-44 -25 -49 -25 -48 2 -34 13 7 32 13 43 15 11 1 40 5 65 8 33 4 38 3 20 -3
-16 -6 -19 -9 -8 -10 24 -1 49 10 43 19 -3 4 13 7 34 6 21 0 37 -4 34 -9 -6
-10 21 -19 49 -15 23 3 22 4 -11 36 -18 17 -42 32 -54 32 -11 0 -29 8 -40 18
-23 20 -59 21 -141 5z m124 -6 c0 -8 11 -20 25 -27 14 -7 25 -18 25 -23 0 -5
-6 -4 -13 2 -8 6 -18 7 -22 3 -5 -4 -5 -2 -1 5 4 8 -5 16 -26 22 -18 5 -25 10
-15 10 10 1 15 6 12 11 -3 6 -1 10 4 10 6 0 11 -6 11 -13z m-56 -39 c-3 -4
-13 -8 -22 -8 -9 0 -29 -6 -44 -14 -26 -14 -26 -13 -16 4 7 10 17 16 23 12 5
-3 3 3 -5 13 -14 17 -13 18 8 13 12 -4 22 -2 22 3 0 5 9 4 19 -3 11 -7 17 -16
15 -20z"/>
<path d="M1049 2435 c-3 -2 -21 -6 -40 -8 -20 -2 -42 -7 -49 -12 -7 -4 -15 -3
-19 3 -6 11 -101 -71 -101 -87 0 -18 14 -19 46 -3 19 8 30 18 25 21 -5 3 49 5
121 3 128 -2 129 -2 123 19 -6 18 -4 19 13 10 14 -7 24 -7 35 2 14 11 14 13
-1 27 -14 13 -15 12 -9 -3 3 -9 2 -19 -3 -22 -6 -4 -11 9 -11 27 -1 30 -2 31
-8 8 -8 -31 -35 -33 -39 -2 -3 18 -10 22 -41 22 -21 0 -40 -2 -42 -5z m36 -15
c-3 -5 3 -10 13 -10 11 0 22 -7 26 -15 4 -12 0 -14 -22 -8 -15 4 -34 6 -42 5
-115 -13 -164 -8 -130 13 6 3 10 1 10 -5 0 -8 7 -9 18 -5 9 4 33 8 52 9 19 1
44 7 55 13 25 15 28 16 20 3z"/>
<path d="M1330 2406 c0 -18 -4 -25 -11 -20 -7 4 -10 1 -7 -6 2 -8 9 -15 15
-17 15 -5 27 47 14 60 -8 8 -11 3 -11 -17z"/>
<path d="M1243 2397 c3 -10 2 -17 -4 -17 -6 0 -7 -4 -4 -10 3 -5 18 -9 33 -9
17 1 21 3 10 6 -10 2 -18 11 -18 18 0 8 -5 17 -12 21 -8 5 -9 2 -5 -9z"/>
<path d="M1707 2375 c12 -8 24 -29 28 -45 4 -17 11 -27 17 -24 6 4 6 10 -1 17
-16 16 -14 25 7 29 13 3 8 8 -17 21 -42 21 -63 22 -34 2z"/>
<path d="M1450 2365 c-25 -7 -54 -16 -64 -21 -14 -5 -17 -4 -11 5 6 10 3 11
-11 3 -11 -5 -53 -12 -94 -15 -41 -4 -75 -6 -76 -7 0 0 -1 -7 -1 -15 0 -8 5
-11 10 -8 6 3 8 -23 5 -67 -4 -68 -3 -71 9 -41 16 38 19 69 9 98 -6 19 -3 23
28 28 51 10 72 3 68 -22 -3 -19 42 -123 53 -123 2 0 -2 19 -10 41 -17 46 -20
105 -6 113 4 3 7 -8 5 -24 -2 -17 1 -30 7 -30 7 0 9 10 5 25 -6 22 -2 25 46
40 61 18 102 20 93 4 -4 -6 -9 -8 -12 -5 -21 20 -141 -88 -130 -117 4 -9 6 -9
6 1 1 15 21 6 21 -9 0 -6 -4 -8 -10 -4 -5 3 -8 -7 -7 -25 2 -37 5 -37 17 -4 6
16 14 23 22 18 7 -4 2 5 -11 19 l-25 27 40 35 c33 30 40 32 43 18 2 -10 10
-27 17 -38 12 -17 14 -17 14 -2 0 20 18 23 26 3 4 -11 13 -12 42 -4 19 5 46
17 59 25 19 13 21 17 8 29 -8 8 -35 15 -60 16 -44 1 -57 10 -34 24 8 4 7 9 -2
15 -18 11 -34 10 -89 -6z m139 -58 c8 -11 5 -16 -15 -25 -35 -17 -48 -15 -30
4 9 8 16 20 16 25 0 13 16 11 29 -4z"/>
<path d="M1580 2360 c28 -22 40 -25 40 -10 0 6 10 10 23 10 18 0 19 2 7 10 -8
5 -33 10 -55 10 l-40 0 25 -20z"/>
<path d="M1688 2337 c12 -13 22 -28 22 -35 0 -6 4 -13 9 -16 11 -7 1 45 -12
62 -5 6 -16 12 -25 12 -12 0 -11 -5 6 -23z"/>
<path d="M978 2321 c10 -6 4 -14 -22 -29 -22 -13 -36 -29 -36 -41 0 -11 -5
-23 -11 -26 -17 -11 32 -31 76 -33 l40 -1 -41 17 -41 17 28 23 28 22 3 -27 c2
-23 8 -29 35 -31 28 -3 33 1 39 23 6 22 11 26 33 21 24 -6 25 -5 8 8 -35 27
-91 29 -143 7 -47 -21 -47 -21 -29 -1 10 11 33 25 51 32 38 13 36 28 -4 28
-19 0 -23 -3 -14 -9z"/>
<path d="M1048 2318 c15 -15 86 -22 77 -7 -6 8 2 9 26 4 19 -4 31 -4 26 1 -4
4 -37 9 -73 10 -46 1 -63 -1 -56 -8z"/>
<path d="M811 2290 c-18 -15 -19 -20 -7 -20 19 0 21 -11 4 -28 -9 -9 -9 -12 0
-12 7 0 12 -7 12 -15 0 -8 4 -15 8 -15 4 0 6 15 4 34 -2 18 1 43 7 55 14 26 3
26 -28 1z"/>
<path d="M1133 2243 c-22 -8 -14 -26 8 -20 18 5 20 2 15 -18 -4 -15 -1 -25 9
-29 16 -6 33 19 21 31 -3 4 -6 1 -6 -5 0 -7 -5 -12 -10 -12 -7 0 -7 6 -1 18 7
13 5 21 -7 28 -9 6 -23 9 -29 7z"/>
<path d="M1588 2238 c-23 -8 -40 -28 -23 -28 12 0 55 24 55 32 0 4 -1 8 -2 7
-2 0 -15 -5 -30 -11z"/>
<path d="M1437 2229 c7 -7 36 -13 65 -16 l53 -3 -50 14 c-63 19 -83 20 -68 5z"/>
<path d="M1712 2166 c-17 -46 -49 -62 -159 -75 l-78 -10 85 4 c47 2 97 8 112
14 29 11 61 62 56 88 -2 9 -9 -1 -16 -21z"/>
<path d="M1066 2173 c-19 -10 -44 -14 -73 -10 -23 2 -43 1 -43 -4 0 -15 99
-10 130 6 29 15 38 25 23 25 -5 -1 -21 -8 -37 -17z"/>
<path d="M1367 2136 c6 -10 8 -27 6 -37 -3 -11 0 -19 6 -19 17 0 13 46 -6 61
-15 13 -15 12 -6 -5z"/>
<path d="M1390 2142 c0 -3 12 -23 26 -43 37 -53 30 -73 -29 -79 -26 -3 -52
-11 -59 -18 -17 -17 -44 -15 -73 4 -26 17 -75 12 -75 -7 0 -8 -5 -7 -15 1 -20
17 -19 52 3 76 9 10 18 28 20 39 2 15 -2 13 -14 -8 -8 -16 -30 -35 -47 -42
-18 -8 -25 -14 -17 -15 9 0 16 -9 17 -21 3 -33 23 -49 62 -48 29 0 32 2 16 9
-20 9 -20 9 0 9 11 0 38 -5 60 -13 35 -12 43 -12 74 5 20 10 44 19 54 19 17 0
17 -2 -4 -20 l-24 -20 32 11 c43 14 56 32 51 74 -3 27 0 35 12 35 8 1 0 7 -17
15 -18 8 -33 19 -33 25 0 6 6 8 13 4 6 -4 8 -3 4 1 -9 11 -37 16 -37 7z"/>
<path d="M1213 2117 c-6 -13 -8 -30 -3 -36 9 -16 17 -4 24 32 6 33 -7 35 -21
4z"/>
<path d="M850 2105 c0 -16 31 -63 45 -69 22 -8 110 -7 160 3 32 6 23 7 -46 8
-106 1 -125 7 -133 38 -5 21 -26 36 -26 20z"/>
<path d="M1197 1945 c-8 -8 -17 -11 -21 -8 -3 4 -6 1 -6 -5 0 -27 23 -22 49
11 16 21 -1 23 -22 2z"/>
<path d="M1197 1863 c-11 -3 -28 -14 -38 -24 -11 -11 -28 -18 -37 -15 -18 6
-60 -20 -49 -30 3 -4 37 1 74 9 81 19 249 28 282 16 14 -6 37 -6 56 0 23 6 37
5 45 -3 10 -9 10 -6 0 13 -10 20 -17 22 -50 17 -24 -4 -51 0 -76 10 -29 12
-46 13 -77 6 -22 -6 -44 -9 -51 -7 -28 8 -63 12 -79 8z"/>
<path d="M1325 1760 c-11 -5 -38 -9 -60 -10 -37 -1 -38 -2 -15 -11 28 -11 124
7 114 22 -6 11 -12 10 -39 -1z"/>
<path d="M1274 1695 c-4 -8 -14 -15 -23 -15 -13 -1 -13 -2 3 -11 14 -9 20 -8
27 2 5 9 9 10 9 2 0 -12 37 -7 56 8 6 5 14 6 17 2 4 -3 7 -2 7 4 0 19 -12 22
-27 7 -17 -16 -39 -13 -35 5 3 17 -28 13 -34 -4z"/>
<path d="M1476 1532 c-21 -18 -36 -35 -34 -37 8 -8 68 29 68 41 0 8 5 13 11
12 6 -2 13 2 16 8 8 22 -25 9 -61 -24z"/>
<path d="M1410 1507 c0 -8 -14 -14 -36 -15 -27 -2 -34 0 -28 10 4 7 -1 5 -12
-4 -16 -14 -27 -16 -52 -9 -28 8 -32 7 -32 -9 0 -20 8 -20 135 -5 11 1 26 3
33 4 14 1 17 41 2 41 -5 0 -10 -6 -10 -13z"/>
<path d="M1487 1084 c-10 -13 -23 -21 -29 -18 -6 4 -8 2 -4 -4 8 -13 -25 -25
-48 -16 -9 3 -16 11 -16 16 0 6 -7 7 -16 4 -8 -3 -24 -1 -34 4 -10 6 -21 6
-24 1 -3 -4 23 -22 57 -39 l62 -31 43 44 c39 41 52 65 35 65 -5 0 -16 -12 -26
-26z"/>
<path d="M1493 1000 c-13 -10 -23 -23 -23 -29 0 -5 -8 -14 -17 -20 -10 -5 -15
-13 -11 -16 4 -4 15 3 25 16 10 12 26 31 36 41 25 26 18 31 -10 8z"/>
<path d="M1340 941 c-7 -13 -7 -22 0 -26 5 -3 10 -1 10 5 0 7 7 9 16 6 14 -5
15 -4 4 9 -10 12 -10 15 3 15 9 0 19 -4 22 -10 8 -13 35 -13 35 0 0 5 -7 7
-15 4 -8 -4 -15 -1 -15 5 0 19 -49 12 -60 -8z"/>
<path d="M2470 1371 c0 -31 17 -52 25 -29 11 34 9 52 -7 56 -14 3 -18 -3 -18
-27z"/>
<path d="M1442 723 c-24 -5 -54 -52 -59 -94 -6 -40 49 -89 99 -89 42 0 78 27
78 59 0 11 5 23 10 26 19 12 10 34 -27 63 -42 32 -67 41 -101 35z m88 -48 c21
-22 22 -27 10 -50 -14 -26 -43 -41 -60 -30 -6 4 -7 11 -4 17 5 7 1 9 -9 5 -8
-3 -21 1 -27 9 -10 11 -9 20 5 41 l18 28 -22 -19 c-28 -25 -23 -57 12 -75 15
-7 27 -20 27 -27 0 -23 27 -16 49 12 15 19 21 22 21 11 0 -21 -38 -47 -68 -47
-56 0 -94 89 -55 132 24 27 75 23 103 -7z"/>
<path d="M1471 676 c-10 -12 -8 -13 10 -9 15 4 26 0 35 -12 19 -26 27 -13 8
13 -17 25 -36 28 -53 8z"/>
<path d="M6 472 c-17 -29 12 -310 35 -336 4 -5 1 18 -7 50 -25 104 -26 111
-16 118 6 3 6 24 0 58 -5 29 -8 67 -6 85 4 34 3 39 -6 25z"/>
<path d="M30 293 c0 -7 11 -41 24 -75 12 -35 26 -81 30 -103 11 -63 28 -115
38 -115 5 0 4 9 -2 19 -5 11 -7 27 -4 35 3 9 2 16 -3 16 -5 0 -10 13 -11 29
-2 30 -71 216 -72 194z"/>
</g>
</svg>
